<svg xmlns="http://www.w3.org/2000/svg" viewBox="0 0 919 380" font-family="Segoe UI, Arial">
<rect x="0" y="0" width="919" height="380" fill="#ffffff"/>
<rect x="0.0" y="0.0" width="52.0" height="52.0" rx="8" ry="8" fill="#f7f7fa" stroke="#8a8a92" stroke-width="2"/>
<text x="26.0" y="32.0" font-size="15" text-anchor="middle" font-family="Segoe UI, Arial" fill="#222">Esc</text><rect x="87.0" y="0.0" width="52.0" height="52.0" rx="8" ry="8" fill="#f7f7fa" stroke="#8a8a92" stroke-width="2"/>
<text x="99.0" y="22.0" font-size="17" font-family="Segoe UI, Arial" fill="#333">~</text>
<text x="99.0" y="40.0" font-size="21" font-weight="600" font-family="Segoe UI, Arial" fill="#111">`</text><rect x="145.0" y="0.0" width="52.0" height="52.0" rx="8" ry="8" fill="#f7f7fa" stroke="#8a8a92" stroke-width="2"/>
<text x="157.0" y="22.0" font-size="17" font-family="Segoe UI, Arial" fill="#333">!</text>
<text x="157.0" y="40.0" font-size="21" font-weight="600" font-family="Segoe UI, Arial" fill="#111">1</text><rect x="203.0" y="0.0" width="52.0" height="52.0" rx="8" ry="8" fill="#f7f7fa" stroke="#8a8a92" stroke-width="2"/>
<text x="215.0" y="22.0" font-size="17" font-family="Segoe UI, Arial" fill="#333">@</text>
<text x="215.0" y="40.0" font-size="21" font-weight="600" font-family="Segoe UI, Arial" fill="#111">2</text><rect x="261.0" y="0.0" width="52.0" height="52.0" rx="8" ry="8" fill="#f7f7fa" stroke="#8a8a92" stroke-width="2"/>
<text x="273.0" y="22.0" font-size="17" font-family="Segoe UI, Arial" fill="#333">#</text>
<text x="273.0" y="40.0" font-size="21" font-weight="600" font-family="Segoe UI, Arial" fill="#111">3</text><rect x="319.0" y="0.0" width="52.0" height="52.0" rx="8" ry="8" fill="#f7f7fa" stroke="#8a8a92" stroke-width="2"/>
<text x="331.0" y="22.0" font-size="17" font-family="Segoe UI, Arial" fill="#333">$</text>
<text x="331.0" y="40.0" font-size="21" font-weight="600" font-family="Segoe UI, Arial" fill="#111">4</text><rect x="377.0" y="0.0" width="52.0" height="52.0" rx="8" ry="8" fill="#f7f7fa" stroke="#8a8a92" stroke-width="2"/>
<text x="389.0" y="22.0" font-size="17" font-family="Segoe UI, Arial" fill="#333">%</text>
<text x="389.0" y="40.0" font-size="21" font-weight="600" font-family="Segoe UI, Arial" fill="#111">5</text><rect x="435.0" y="0.0" width="52.0" height="52.0" rx="8" ry="8" fill="#f7f7fa" stroke="#8a8a92" stroke-width="2"/>
<text x="447.0" y="22.0" font-size="17" font-family="Segoe UI, Arial" fill="#333">^</text>
<text x="447.0" y="40.0" font-size="21" font-weight="600" font-family="Segoe UI, Arial" fill="#111">6</text><rect x="493.0" y="0.0" width="52.0" height="52.0" rx="8" ry="8" fill="#f7f7fa" stroke="#8a8a92" stroke-width="2"/>
<text x="505.0" y="22.0" font-size="17" font-family="Segoe UI, Arial" fill="#333">&amp;</text>
<text x="505.0" y="40.0" font-size="21" font-weight="600" font-family="Segoe UI, Arial" fill="#111">7</text><rect x="551.0" y="0.0" width="52.0" height="52.0" rx="8" ry="8" fill="#f7f7fa" stroke="#8a8a92" stroke-width="2"/>
<text x="563.0" y="22.0" font-size="17" font-family="Segoe UI, Arial" fill="#333">*</text>
<text x="563.0" y="40.0" font-size="21" font-weight="600" font-family="Segoe UI, Arial" fill="#111">8</text><rect x="609.0" y="0.0" width="52.0" height="52.0" rx="8" ry="8" fill="#f7f7fa" stroke="#8a8a92" stroke-width="2"/>
<text x="621.0" y="22.0" font-size="17" font-family="Segoe UI, Arial" fill="#333">(</text>
<text x="621.0" y="40.0" font-size="21" font-weight="600" font-family="Segoe UI, Arial" fill="#111">9</text><rect x="667.0" y="0.0" width="52.0" height="52.0" rx="8" ry="8" fill="#f7f7fa" stroke="#8a8a92" stroke-width="2"/>
<text x="679.0" y="22.0" font-size="17" font-family="Segoe UI, Arial" fill="#333">)</text>
<text x="679.0" y="40.0" font-size="21" font-weight="600" font-family="Segoe UI, Arial" fill="#111">0</text><rect x="725.0" y="0.0" width="52.0" height="52.0" rx="8" ry="8" fill="#f7f7fa" stroke="#8a8a92" stroke-width="2"/>
<text x="737.0" y="22.0" font-size="17" font-family="Segoe UI, Arial" fill="#333">_</text>
<text x="737.0" y="40.0" font-size="21" font-weight="600" font-family="Segoe UI, Arial" fill="#111">-</text><rect x="783.0" y="0.0" width="52.0" height="52.0" rx="8" ry="8" fill="#f7f7fa" stroke="#8a8a92" stroke-width="2"/>
<text x="795.0" y="22.0" font-size="17" font-family="Segoe UI, Arial" fill="#333">+</text>
<text x="795.0" y="40.0" font-size="21" font-weight="600" font-family="Segoe UI, Arial" fill="#111">=</text><rect x="841.0" y="0.0" width="110.0" height="52.0" rx="8" ry="8" fill="#f7f7fa" stroke="#8a8a92" stroke-width="2"/>
<text x="896.0" y="32.0" font-size="13" text-anchor="middle" font-family="Segoe UI, Arial" fill="#222">Backspace</text><rect x="0.0" y="58.0" width="81.0" height="52.0" rx="8" ry="8" fill="#f7f7fa" stroke="#8a8a92" stroke-width="2"/>
<text x="40.5" y="90.0" font-size="15" text-anchor="middle" font-family="Segoe UI, Arial" fill="#222">Tab</text><rect x="87.0" y="58.0" width="52.0" height="52.0" rx="8" ry="8" fill="#f7f7fa" stroke="#8a8a92" stroke-width="2"/>
<text x="99.0" y="80.0" font-size="17" font-family="Segoe UI, Arial" fill="#333">Q</text>
<text x="99.0" y="98.0" font-size="21" font-weight="600" font-family="Segoe UI, Arial" fill="#111">q</text><rect x="145.0" y="58.0" width="52.0" height="52.0" rx="8" ry="8" fill="#f7f7fa" stroke="#8a8a92" stroke-width="2"/>
<text x="157.0" y="80.0" font-size="17" font-family="Segoe UI, Arial" fill="#333">W</text>
<text x="157.0" y="98.0" font-size="21" font-weight="600" font-family="Segoe UI, Arial" fill="#111">w</text><rect x="203.0" y="58.0" width="52.0" height="52.0" rx="8" ry="8" fill="#f7f7fa" stroke="#8a8a92" stroke-width="2"/>
<text x="215.0" y="80.0" font-size="17" font-family="Segoe UI, Arial" fill="#333">E</text>
<text x="215.0" y="98.0" font-size="21" font-weight="600" font-family="Segoe UI, Arial" fill="#111">e</text><rect x="261.0" y="58.0" width="52.0" height="52.0" rx="8" ry="8" fill="#f7f7fa" stroke="#8a8a92" stroke-width="2"/>
<text x="273.0" y="80.0" font-size="17" font-family="Segoe UI, Arial" fill="#333">R</text>
<text x="273.0" y="98.0" font-size="21" font-weight="600" font-family="Segoe UI, Arial" fill="#111">r</text><rect x="319.0" y="58.0" width="52.0" height="52.0" rx="8" ry="8" fill="#f7f7fa" stroke="#8a8a92" stroke-width="2"/>
<text x="331.0" y="80.0" font-size="17" font-family="Segoe UI, Arial" fill="#333">T</text>
<text x="331.0" y="98.0" font-size="21" font-weight="600" font-family="Segoe UI, Arial" fill="#111">t</text><rect x="377.0" y="58.0" width="52.0" height="52.0" rx="8" ry="8" fill="#f7f7fa" stroke="#8a8a92" stroke-width="2"/>
<text x="389.0" y="80.0" font-size="17" font-family="Segoe UI, Arial" fill="#333">Y</text>
<text x="389.0" y="98.0" font-size="21" font-weight="600" font-family="Segoe UI, Arial" fill="#111">y</text><rect x="435.0" y="58.0" width="52.0" height="52.0" rx="8" ry="8" fill="#f7f7fa" stroke="#8a8a92" stroke-width="2"/>
<text x="447.0" y="80.0" font-size="17" font-family="Segoe UI, Arial" fill="#333">U</text>
<text x="447.0" y="98.0" font-size="21" font-weight="600" font-family="Segoe UI, Arial" fill="#111">u</text><rect x="493.0" y="58.0" width="52.0" height="52.0" rx="8" ry="8" fill="#f7f7fa" stroke="#8a8a92" stroke-width="2"/>
<text x="505.0" y="80.0" font-size="17" font-family="Segoe UI, Arial" fill="#333">I</text>
<text x="505.0" y="98.0" font-size="21" font-weight="600" font-family="Segoe UI, Arial" fill="#111">i</text><rect x="551.0" y="58.0" width="52.0" height="52.0" rx="8" ry="8" fill="#f7f7fa" stroke="#8a8a92" stroke-width="2"/>
<text x="563.0" y="80.0" font-size="17" font-family="Segoe UI, Arial" fill="#333">O</text>
<text x="563.0" y="98.0" font-size="21" font-weight="600" font-family="Segoe UI, Arial" fill="#111">o</text><rect x="609.0" y="58.0" width="52.0" height="52.0" rx="8" ry="8" fill="#f7f7fa" stroke="#8a8a92" stroke-width="2"/>
<text x="621.0" y="80.0" font-size="17" font-family="Segoe UI, Arial" fill="#333">P</text>
<text x="621.0" y="98.0" font-size="21" font-weight="600" font-family="Segoe UI, Arial" fill="#111">p</text><rect x="667.0" y="58.0" width="52.0" height="52.0" rx="8" ry="8" fill="#e8e6ff" stroke="#8a8a92" stroke-width="2"/>
<text x="679.0" y="80.0" font-size="17" font-family="Segoe UI, Arial" fill="#333">Ğ</text>
<text x="679.0" y="98.0" font-size="21" font-weight="600" font-family="Segoe UI, Arial" fill="#111">ğ</text>
<text x="705.0" y="80.0" font-size="13" text-anchor="end" font-family="Segoe UI, Arial" fill="#7a4dd6">[</text>
<text x="705.0" y="96.0" font-size="13" text-anchor="end" font-family="Segoe UI, Arial" fill="#c2410c">{</text><rect x="725.0" y="58.0" width="52.0" height="52.0" rx="8" ry="8" fill="#e8e6ff" stroke="#8a8a92" stroke-width="2"/>
<text x="737.0" y="80.0" font-size="17" font-family="Segoe UI, Arial" fill="#333">Ö</text>
<text x="737.0" y="98.0" font-size="21" font-weight="600" font-family="Segoe UI, Arial" fill="#111">ö</text>
<text x="763.0" y="80.0" font-size="13" text-anchor="end" font-family="Segoe UI, Arial" fill="#7a4dd6">]</text>
<text x="763.0" y="96.0" font-size="13" text-anchor="end" font-family="Segoe UI, Arial" fill="#c2410c">}</text><rect x="783.0" y="58.0" width="81.0" height="52.0" rx="8" ry="8" fill="#e8e6ff" stroke="#8a8a92" stroke-width="2"/>
<text x="795.0" y="80.0" font-size="17" font-family="Segoe UI, Arial" fill="#333">Ç</text>
<text x="795.0" y="98.0" font-size="21" font-weight="600" font-family="Segoe UI, Arial" fill="#111">ç</text>
<text x="850.0" y="80.0" font-size="13" text-anchor="end" font-family="Segoe UI, Arial" fill="#7a4dd6">\</text>
<text x="850.0" y="96.0" font-size="13" text-anchor="end" font-family="Segoe UI, Arial" fill="#c2410c">|</text><rect x="0.0" y="116.0" width="95.5" height="52.0" rx="8" ry="8" fill="#f7f7fa" stroke="#8a8a92" stroke-width="2"/>
<text x="47.8" y="148.0" font-size="12" text-anchor="middle" font-family="Segoe UI, Arial" fill="#222">Caps Lock</text><rect x="101.5" y="116.0" width="52.0" height="52.0" rx="8" ry="8" fill="#f7f7fa" stroke="#8a8a92" stroke-width="2"/>
<text x="113.5" y="138.0" font-size="17" font-family="Segoe UI, Arial" fill="#333">A</text>
<text x="113.5" y="156.0" font-size="21" font-weight="600" font-family="Segoe UI, Arial" fill="#111">a</text><rect x="159.5" y="116.0" width="52.0" height="52.0" rx="8" ry="8" fill="#f7f7fa" stroke="#8a8a92" stroke-width="2"/>
<text x="171.5" y="138.0" font-size="17" font-family="Segoe UI, Arial" fill="#333">S</text>
<text x="171.5" y="156.0" font-size="21" font-weight="600" font-family="Segoe UI, Arial" fill="#111">s</text><rect x="217.5" y="116.0" width="52.0" height="52.0" rx="8" ry="8" fill="#f7f7fa" stroke="#8a8a92" stroke-width="2"/>
<text x="229.5" y="138.0" font-size="17" font-family="Segoe UI, Arial" fill="#333">D</text>
<text x="229.5" y="156.0" font-size="21" font-weight="600" font-family="Segoe UI, Arial" fill="#111">d</text><rect x="275.5" y="116.0" width="52.0" height="52.0" rx="8" ry="8" fill="#f7f7fa" stroke="#8a8a92" stroke-width="2"/>
<text x="287.5" y="138.0" font-size="17" font-family="Segoe UI, Arial" fill="#333">F</text>
<text x="287.5" y="156.0" font-size="21" font-weight="600" font-family="Segoe UI, Arial" fill="#111">f</text><rect x="333.5" y="116.0" width="52.0" height="52.0" rx="8" ry="8" fill="#f7f7fa" stroke="#8a8a92" stroke-width="2"/>
<text x="345.5" y="138.0" font-size="17" font-family="Segoe UI, Arial" fill="#333">G</text>
<text x="345.5" y="156.0" font-size="21" font-weight="600" font-family="Segoe UI, Arial" fill="#111">g</text><rect x="391.5" y="116.0" width="52.0" height="52.0" rx="8" ry="8" fill="#f7f7fa" stroke="#8a8a92" stroke-width="2"/>
<text x="403.5" y="138.0" font-size="17" font-family="Segoe UI, Arial" fill="#333">H</text>
<text x="403.5" y="156.0" font-size="21" font-weight="600" font-family="Segoe UI, Arial" fill="#111">h</text><rect x="449.5" y="116.0" width="52.0" height="52.0" rx="8" ry="8" fill="#f7f7fa" stroke="#8a8a92" stroke-width="2"/>
<text x="461.5" y="138.0" font-size="17" font-family="Segoe UI, Arial" fill="#333">J</text>
<text x="461.5" y="156.0" font-size="21" font-weight="600" font-family="Segoe UI, Arial" fill="#111">j</text><rect x="507.5" y="116.0" width="52.0" height="52.0" rx="8" ry="8" fill="#f7f7fa" stroke="#8a8a92" stroke-width="2"/>
<text x="519.5" y="138.0" font-size="17" font-family="Segoe UI, Arial" fill="#333">K</text>
<text x="519.5" y="156.0" font-size="21" font-weight="600" font-family="Segoe UI, Arial" fill="#111">k</text><rect x="565.5" y="116.0" width="52.0" height="52.0" rx="8" ry="8" fill="#f7f7fa" stroke="#8a8a92" stroke-width="2"/>
<text x="577.5" y="138.0" font-size="17" font-family="Segoe UI, Arial" fill="#333">L</text>
<text x="577.5" y="156.0" font-size="21" font-weight="600" font-family="Segoe UI, Arial" fill="#111">l</text><rect x="623.5" y="116.0" width="52.0" height="52.0" rx="8" ry="8" fill="#e8e6ff" stroke="#8a8a92" stroke-width="2"/>
<text x="635.5" y="138.0" font-size="17" font-family="Segoe UI, Arial" fill="#333">Ş</text>
<text x="635.5" y="156.0" font-size="21" font-weight="600" font-family="Segoe UI, Arial" fill="#111">ş</text>
<text x="661.5" y="138.0" font-size="13" text-anchor="end" font-family="Segoe UI, Arial" fill="#7a4dd6">;</text>
<text x="661.5" y="154.0" font-size="13" text-anchor="end" font-family="Segoe UI, Arial" fill="#c2410c">:</text><rect x="681.5" y="116.0" width="52.0" height="52.0" rx="8" ry="8" fill="#f7f7fa" stroke="#8a8a92" stroke-width="2"/>
<text x="693.5" y="138.0" font-size="17" font-family="Segoe UI, Arial" fill="#333">&quot;</text>
<text x="693.5" y="156.0" font-size="21" font-weight="600" font-family="Segoe UI, Arial" fill="#111">&#x27;</text><rect x="739.5" y="116.0" width="124.5" height="52.0" rx="8" ry="8" fill="#f7f7fa" stroke="#8a8a92" stroke-width="2"/>
<text x="801.8" y="148.0" font-size="15" text-anchor="middle" font-family="Segoe UI, Arial" fill="#222">Enter</text><rect x="0.0" y="174.0" width="124.5" height="52.0" rx="8" ry="8" fill="#f7f7fa" stroke="#8a8a92" stroke-width="2"/>
<text x="62.2" y="206.0" font-size="14" text-anchor="middle" font-family="Segoe UI, Arial" fill="#222">Shift</text><rect x="130.5" y="174.0" width="52.0" height="52.0" rx="8" ry="8" fill="#f7f7fa" stroke="#8a8a92" stroke-width="2"/>
<text x="142.5" y="196.0" font-size="17" font-family="Segoe UI, Arial" fill="#333">Z</text>
<text x="142.5" y="214.0" font-size="21" font-weight="600" font-family="Segoe UI, Arial" fill="#111">z</text><rect x="188.5" y="174.0" width="52.0" height="52.0" rx="8" ry="8" fill="#f7f7fa" stroke="#8a8a92" stroke-width="2"/>
<text x="200.5" y="196.0" font-size="17" font-family="Segoe UI, Arial" fill="#333">X</text>
<text x="200.5" y="214.0" font-size="21" font-weight="600" font-family="Segoe UI, Arial" fill="#111">x</text><rect x="246.5" y="174.0" width="52.0" height="52.0" rx="8" ry="8" fill="#f7f7fa" stroke="#8a8a92" stroke-width="2"/>
<text x="258.5" y="196.0" font-size="17" font-family="Segoe UI, Arial" fill="#333">C</text>
<text x="258.5" y="214.0" font-size="21" font-weight="600" font-family="Segoe UI, Arial" fill="#111">c</text><rect x="304.5" y="174.0" width="52.0" height="52.0" rx="8" ry="8" fill="#f7f7fa" stroke="#8a8a92" stroke-width="2"/>
<text x="316.5" y="196.0" font-size="17" font-family="Segoe UI, Arial" fill="#333">V</text>
<text x="316.5" y="214.0" font-size="21" font-weight="600" font-family="Segoe UI, Arial" fill="#111">v</text><rect x="362.5" y="174.0" width="52.0" height="52.0" rx="8" ry="8" fill="#f7f7fa" stroke="#8a8a92" stroke-width="2"/>
<text x="374.5" y="196.0" font-size="17" font-family="Segoe UI, Arial" fill="#333">B</text>
<text x="374.5" y="214.0" font-size="21" font-weight="600" font-family="Segoe UI, Arial" fill="#111">b</text><rect x="420.5" y="174.0" width="52.0" height="52.0" rx="8" ry="8" fill="#f7f7fa" stroke="#8a8a92" stroke-width="2"/>
<text x="432.5" y="196.0" font-size="17" font-family="Segoe UI, Arial" fill="#333">N</text>
<text x="432.5" y="214.0" font-size="21" font-weight="600" font-family="Segoe UI, Arial" fill="#111">n</text><rect x="478.5" y="174.0" width="52.0" height="52.0" rx="8" ry="8" fill="#f7f7fa" stroke="#8a8a92" stroke-width="2"/>
<text x="490.5" y="196.0" font-size="17" font-family="Segoe UI, Arial" fill="#333">M</text>
<text x="490.5" y="214.0" font-size="21" font-weight="600" font-family="Segoe UI, Arial" fill="#111">m</text><rect x="536.5" y="174.0" width="52.0" height="52.0" rx="8" ry="8" fill="#f7f7fa" stroke="#8a8a92" stroke-width="2"/>
<text x="548.5" y="196.0" font-size="17" font-family="Segoe UI, Arial" fill="#333">&lt;</text>
<text x="548.5" y="214.0" font-size="21" font-weight="600" font-family="Segoe UI, Arial" fill="#111">,</text><rect x="594.5" y="174.0" width="52.0" height="52.0" rx="8" ry="8" fill="#f7f7fa" stroke="#8a8a92" stroke-width="2"/>
<text x="606.5" y="196.0" font-size="17" font-family="Segoe UI, Arial" fill="#333">&gt;</text>
<text x="606.5" y="214.0" font-size="21" font-weight="600" font-family="Segoe UI, Arial" fill="#111">.</text><rect x="652.5" y="174.0" width="52.0" height="52.0" rx="8" ry="8" fill="#f7f7fa" stroke="#8a8a92" stroke-width="2"/>
<text x="664.5" y="196.0" font-size="17" font-family="Segoe UI, Arial" fill="#333">?</text>
<text x="664.5" y="214.0" font-size="21" font-weight="600" font-family="Segoe UI, Arial" fill="#111">/</text><rect x="710.5" y="174.0" width="153.5" height="52.0" rx="8" ry="8" fill="#f7f7fa" stroke="#8a8a92" stroke-width="2"/>
<text x="787.2" y="206.0" font-size="14" text-anchor="middle" font-family="Segoe UI, Arial" fill="#222">Shift</text><rect x="0.0" y="232.0" width="81.0" height="52.0" rx="8" ry="8" fill="#f7f7fa" stroke="#8a8a92" stroke-width="2"/>
<text x="40.5" y="264.0" font-size="13" text-anchor="middle" font-family="Segoe UI, Arial" fill="#222">Ctrl</text><rect x="87.0" y="232.0" width="66.5" height="52.0" rx="8" ry="8" fill="#f7f7fa" stroke="#8a8a92" stroke-width="2"/>
<text x="120.2" y="264.0" font-size="13" text-anchor="middle" font-family="Segoe UI, Arial" fill="#222">Win</text><rect x="159.5" y="232.0" width="66.5" height="52.0" rx="8" ry="8" fill="#f7f7fa" stroke="#8a8a92" stroke-width="2"/>
<text x="192.8" y="264.0" font-size="13" text-anchor="middle" font-family="Segoe UI, Arial" fill="#222">Alt</text><rect x="232.0" y="232.0" width="356.5" height="52.0" rx="8" ry="8" fill="#f7f7fa" stroke="#8a8a92" stroke-width="2"/>
<text x="410.2" y="264.0" font-size="20" text-anchor="middle" font-family="Segoe UI, Arial" fill="#222">Space</text><rect x="594.5" y="232.0" width="66.5" height="52.0" rx="8" ry="8" fill="#f7f7fa" stroke="#8a8a92" stroke-width="2"/>
<text x="627.8" y="264.0" font-size="12" text-anchor="middle" font-family="Segoe UI, Arial" fill="#222">AltGr</text><rect x="667.0" y="232.0" width="66.5" height="52.0" rx="8" ry="8" fill="#f7f7fa" stroke="#8a8a92" stroke-width="2"/>
<text x="700.2" y="264.0" font-size="12" text-anchor="middle" font-family="Segoe UI, Arial" fill="#222">Win</text><rect x="739.5" y="232.0" width="66.5" height="52.0" rx="8" ry="8" fill="#f7f7fa" stroke="#8a8a92" stroke-width="2"/>
<text x="772.8" y="264.0" font-size="12" text-anchor="middle" font-family="Segoe UI, Arial" fill="#222">Menu</text><rect x="812.0" y="232.0" width="81.0" height="52.0" rx="8" ry="8" fill="#f7f7fa" stroke="#8a8a92" stroke-width="2"/>
<text x="852.5" y="264.0" font-size="12" text-anchor="middle" font-family="Segoe UI, Arial" fill="#222">Ctrl</text>

<text x="20" y="325" font-size="15" font-family="Segoe UI, Arial" fill="#222" font-weight="600">Uzbek New Latin — klaviatura tartibi (US ANSI, KLC: uz-new)</text>
<text x="20" y="348" font-size="12" font-family="Segoe UI, Arial" fill="#555">Yuqori chap belgi — Shift · yirik belgi — asosiy daraja</text>
<circle cx="20" cy="362" r="5" fill="#e8e6ff" stroke="#8a8a92"/>
<text x="32" y="366" font-size="12" font-family="Segoe UI, Arial" fill="#555">— almashtirilgan tugmalar: binafsha = Ctrl, to'q sariq = Ctrl+Alt (asl ASCII belgisi)</text>

</svg>